# xmcd CD database file
#
# Track frame offsets:
#	150
#	13477
#	24702
#	37392
#	48847
#	68067
#	80290
#	90962
#	100722
#	111410
#
# Disc length: 1642 seconds
#
# Revision: 0
# Processed by: cddbd v1.5.1PL0 Copyright (c) Steve Scherf et al.
# Submitted via: CDex 1.51
#
DISCID=7c06680a
DTITLE=Variou - Great Country Hymns Disc 1
DYEAR=2003
DGENRE=Country
TTITLE0=Jimmie Rodgers and Sara Carter/The Wonderful City
TTITLE1=Bill Monroe/Cryin' Holy Unto My Lord
TTITLE2=Johnnie and Jack/I Heard My Saviour Call
TTITLE3=Wade Mainer/Mansions In The Sky
TTITLE4=Johnson Family Singers/I Love To Tell The Story
TTITLE5=Blackwood Brothers/He Touched Me
TTITLE6=Statesmen/I Shall Not Be Moved
TTITLE7=Roy Rogers and Dale Evans/The Bible Tells Me So
TTITLE8=Sons Of The Pioneers/Lead Me Gently Home, Father
TTITLE9=Blue Sky Boys/Only One Step More
EXTD=YEAR: 2003
EXTT0=
EXTT1=
EXTT2=
EXTT3=
EXTT4=
EXTT5=
EXTT6=
EXTT7=
EXTT8=
EXTT9=
PLAYORDER=
